<?xml version="1.0" encoding="UTF-8"?><svg id="Layer_2" xmlns="http://www.w3.org/2000/svg" viewBox="0 0 64 64"><rect x="29.63" y="41.82" width="4.74" height="6.51" fill="#fff"/><path d="M34.37,49.04h-4.74c-.39,0-.71-.32-.71-.71v-6.51c0-.39,.32-.71,.71-.71h4.74c.39,0,.71,.32,.71,.71v6.51c0,.39-.32,.71-.71,.71Zm-4.04-1.41h3.33v-5.1h-3.33v5.1Z" fill="#2b3e45"/><path d="M36.67,21.15l-1.96,2.6h0c3.29,1.2,5.64,4.34,5.64,8.05,0,4.73-3.84,8.57-8.57,8.57-3.61,0-6.7-2.24-7.96-5.4h-3.33c1.38,4.94,5.9,8.56,11.28,8.56,6.48,0,11.73-5.25,11.73-11.73,0-4.73-2.8-8.79-6.84-10.65Z" fill="#fff"/><path d="M31.78,40.37c-2.07,0-3.96-.74-5.44-1.96-1.18,.51-2.24,.97-3.14,1.37,2.14,2.3,5.19,3.75,8.58,3.75,6.48,0,11.73-5.25,11.73-11.73,0-.22-.01-.44-.02-.67-1.01,.43-2.08,.87-3.17,1.34-.34,4.42-4.03,7.9-8.53,7.9Z" fill="#c2d6e0"/><path d="M32,50.41c-9.96,0-18.07-8.11-18.07-18.07S22.04,14.27,32,14.27s18.07,8.11,18.07,18.07-8.11,18.07-18.07,18.07Zm0-34.73c-9.18,0-16.66,7.47-16.66,16.66s7.47,16.66,16.66,16.66,16.66-7.47,16.66-16.66-7.47-16.66-16.66-16.66Z" fill="#2b3e45"/><path d="M38.7,46.07h-13.41c-.32,0-.61,.19-.74,.48l-1.82,4.04c-.24,.54,.15,1.15,.74,1.15h17.05c.59,0,.98-.61,.74-1.15l-1.82-4.04c-.13-.29-.42-.48-.74-.48Z" fill="#ffca77"/><path d="M22.73,50.59c-.24,.54,.15,1.15,.74,1.15h17.05c.59,0,.98-.61,.74-1.15l-.7-1.56H23.43l-.7,1.56Z" fill="#e4ab53"/><rect x="28.8" y="13.58" width="6.77" height="15.76" rx="1" ry="1" transform="translate(19.43 -15.06) rotate(37.06)" fill="#ffca77"/><path d="M36.84,12.84h1.75c.55,0,1,.45,1,1v1.59h-3.75v-1.59c0-.55,.45-1,1-1Z" transform="translate(16.14 -19.88) rotate(37.06)" fill="#fff"/><path d="M24.8,27.49h3.75v1.56c0,.55-.45,1-1,1h-1.75c-.55,0-1-.45-1-1v-1.56h0Z" transform="translate(22.72 -10.26) rotate(37.06)" fill="#fff"/><path d="M31.78,44.23c-5.55,0-10.47-3.73-11.96-9.08-.06-.21-.02-.44,.12-.62,.13-.18,.34-.28,.56-.28h3.33c.29,0,.55,.18,.66,.45,1.2,3.01,4.06,4.96,7.3,4.96,4.33,0,7.86-3.53,7.86-7.86,0-3.29-2.08-6.25-5.17-7.38-.18-.07-.33-.2-.4-.38s-.08-.37-.01-.55c.02-.06,.06-.12,.09-.17l1.96-2.6c.2-.27,.56-.36,.86-.22,4.4,2.03,7.25,6.46,7.25,11.29,0,6.86-5.58,12.43-12.43,12.43Zm-10.31-8.56c1.6,4.25,5.71,7.15,10.31,7.15,6.08,0,11.02-4.94,11.02-11.02,0-4.09-2.3-7.86-5.92-9.76l-1.07,1.42c3.17,1.54,5.24,4.78,5.24,8.34,0,5.11-4.16,9.27-9.27,9.27-3.65,0-6.91-2.1-8.42-5.4h-1.89Z" fill="#2b3e45"/><rect x="17.4" y="33.31" width="10.45" height="2.32" rx="1" ry="1" fill="#ffca77"/><path d="M27.14,36.34h-9.03c-.78,0-1.41-.63-1.41-1.41v-.9c0-.78,.63-1.41,1.41-1.41h9.03c.78,0,1.41,.63,1.41,1.41v.9c0,.78-.63,1.41-1.41,1.41Zm-9.03-2.32v.9h9.03v-.9h-9.03Z" fill="#682e18"/><path d="M40.53,52.45H23.47c-.52,0-1-.26-1.28-.7-.28-.44-.32-.98-.11-1.45l1.82-4.04c.25-.54,.79-.9,1.39-.9h13.41c.6,0,1.14,.35,1.39,.9l1.82,4.04c.21,.47,.17,1.01-.11,1.45-.28,.44-.76,.7-1.28,.7Zm-15.23-5.67s-.08,.02-.1,.06l-1.82,4.04s-.01,.07,0,.1,.05,.05,.09,.05h17.05s.07-.02,.09-.05c.02-.03,.02-.07,0-.1l-1.82-4.04s-.06-.06-.1-.06h-13.41Z" fill="#682e18"/><g><line x1="27.13" y1="23.63" x2="29.88" y2="25.7" fill="#fff"/><path d="M39.86,13.24l-1.86-1.41c-.62-.47-1.51-.35-1.98,.28l-.71,.94-.08-.06c-.62-.47-1.51-.35-1.98,.28l-8.64,11.45c-.47,.62-.35,1.51,.28,1.98l.08,.06-.69,.91c-.47,.62-.35,1.51,.28,1.98l1.86,1.41c.25,.19,.54,.29,.85,.29,.07,0,.13,0,.2-.01,.37-.05,.71-.25,.93-.55l.69-.91,.08,.06h0c.25,.19,.55,.29,.85,.29,.43,0,.85-.19,1.13-.56l8.64-11.45c.47-.62,.35-1.51-.28-1.98l-.08-.06,.71-.94c.47-.62,.35-1.51-.28-1.98Zm-11.91,15.77l-.69,.91-1.87-1.41,.69-.91,1.38,1.04,.49,.37Zm2.06-.22h0s-4.28-3.23-4.28-3.23l1.02-1.35,2.71,2.05c.13,.1,.28,.14,.43,.14,.21,0,.43-.1,.56-.28,.24-.31,.17-.75-.14-.99l-2.71-2.05,6.78-8.97,.64,.48s0,0,0,0l2.99,2.26s0,0,0,0l.64,.48-8.64,11.45Zm6.42-14.9l.71-.94,1.87,1.41-.71,.94-1.87-1.41Z" fill="#682e18"/></g><circle cx="36.66" cy="22.92" r="4.13" fill="#fff"/><path d="M39.96,20.46c-.46,2.68-2.78,4.73-5.6,4.73-.43,0-.85-.05-1.25-.14,.72,1.2,2.03,2.01,3.54,2.01,2.28,0,4.13-1.85,4.13-4.13,0-.92-.31-1.78-.82-2.46Z" fill="#c2d6e0"/><path d="M36.66,27.76c-2.67,0-4.84-2.17-4.84-4.84s2.17-4.84,4.84-4.84,4.84,2.17,4.84,4.84-2.17,4.84-4.84,4.84Zm0-8.26c-1.89,0-3.42,1.53-3.42,3.42s1.53,3.42,3.42,3.42,3.42-1.53,3.42-3.42-1.53-3.42-3.42-3.42Z" fill="#2b3e45"/><g><circle cx="36.66" cy="22.92" r="1.58" fill="#fff"/><path d="M36.66,25.21c-1.26,0-2.29-1.03-2.29-2.29s1.03-2.29,2.29-2.29,2.29,1.03,2.29,2.29-1.03,2.29-2.29,2.29Zm0-3.17c-.48,0-.88,.39-.88,.88s.39,.88,.88,.88,.88-.39,.88-.88-.39-.88-.88-.88Z" fill="#2b3e45"/></g></svg>